<svg xmlns="http://www.w3.org/2000/svg" viewBox="0 0 260 296" fill="none" stroke="currentColor" stroke-linecap="round" stroke-linejoin="round">
<path stroke-width="2" d="M127.92,2.34c3.4,0,5.1,0.6,6.9,2.5c1.4,1.3,2.5,2.9,2.5,3.5c0,0.5,1.2,1,2.6,1c4.7,0,14.7,3.1,22.4,6.8
  c5.3,2.6,9.5,5.7,14.5,10.7c14,14,20.4,31.1,20.8,54.9l0.2,13l-3.3,2.2c-1.8,1.2-5,2.5-7.1,2.9l-3.9,0.6l-0.6,6.7
  c-1.9,19.6-1.9,17.9,0.1,15.5c1-1.1,2.79-7.19,7.3-9.7C192,112,194.7,113,195,113c0.4,0,3,4,3,6c1.5,12-5.08,18.24-14.78,24.84
  c-7.9,5.4-11.6,17.7-8.3,28.1c2.3,7.5,10.5,16.5,16.5,18.3c6.4,1.9,26.3,11.5,34.5,16.7c13.9,8.6,22.9,22,27.8,41.6
  c2.9,11.4,4.9,24.9,3.9,25.9c-1.3,1.3-25.9,7.8-41.3,10.9c-66.4,13.3-145.4,10.5-203.9-7.2l-10.3-3.2l0.7-6
  c1.1-10.6,4.6-25.9,7.7-33.5c5.3-13.4,10.5-19.2,23.8-26C42.42,205.24,66.7,196.1,71,195c2.6-0.6,13,0,13,0l4,9l5,10l7,11
  c0,0,13.52,19.04,19.32,28.84c2.9,4.9,6.1,10.3,7.1,11.9l1.7,2.9l2.2-4.4c6.4-12.6,15.7-26.5,24.2-36.1l3.3-3.7L163,216l5-9l6-9
  l5.82-7.66c0,0-7.9-6.5-13.6-7.7c-2.5-0.5-2.6-0.3-3.2,5.5c-0.7,8.2-4.1,15-12.7,25.7c-9.4,11.7-13.9,18.3-18.4,27.4l-3.7,7.3
  l-5.2-9.3c-2.9-5.2-8.6-14.1-12.7-19.9c-11.8-16.4-14-20.3-15.8-27.9c-1.1-5-2-7-2.9-6.7c-5.2,2-17.5,3.5-23.1,2.9l-6.3-0.8l7.4-10
  c4.1-5.5,8.4-11.9,9.5-14.2l2.2-4.2l-2-4.3c-1.1-2.4-2-5-2-5.9s-1.1-2.1-2.5-2.7c-4.2-1.9-11-8.8-13.3-13.6C59,128,57,126,57,120
  c0-1.13,0-1,1-4c0.66-1.97,2.93-3,5-3c2,0,4,1,4,1c3.4,4.3,4.62,7.04,5.62,8.34c1.5,2.1,1.7,2.2,1.3,0.5c-0.3-1.1-0.7-4.7-1.1-8
  c-1.5-14.9-1.2-14.2-5.3-15c-2-0.3-5.4-1.7-7.5-3.1c-3.6-2.4-3.7-2.6-3.3-7.2c0.3-2.6,0.8-8.3,1.1-12.7c0.9-11.8,4-23.9,8.7-33.5
  c5.2-10.5,16.3-22.2,25.4-26.8c6.8-3.4,18.4-7.2,22.2-7.2c1.5,0,3.8-1.3,5.9-3.5C122.92,2.84,124.12,2.34,127.92,2.34z
  M113.84,71.89c-13.11,1.46-31.32,6.19-37.53,9.77c-3.11,1.79-2.41,1.79,7.5,0.13c25.32-4.41,64.61-3.88,94.5,1.22
  c3.1,0.51,2.9,0.31-1.79-2.01c-7.39-3.43-16.98-6.16-28.17-8.1C139.84,71.58,122.04,71.02,113.84,71.89z M89.52,101.94l-8.3-0.8
  l0.7,8.9c1.1,13.7,4.7,30,8.4,37.5c3.5,7.2,11.1,15.6,17.5,19.3c6.4,3.8,14.9,5.8,22.5,5.3c13.2-0.7,27.9-10.6,34.2-23.1
  c3.9-7.8,7.7-24.6,8.5-37.6l0.6-10.3l-8,0.7c-4.4,0.4-21.4,0.7-37.9,0.8C111.32,102.64,94.12,102.34,89.52,101.94z M151.32,180.34
  c-13.9,7.7-35.3,7.9-46.7,0.5c-1.2-0.8-2.5-1.5-2.9-1.5c-1.5,0,0.6,12.2,2.9,17.4c1.4,3,6.1,10,10.5,15.5
  c4.5,5.6,9.1,11.9,10.3,14.1c1.3,2.2,2.6,4,2.9,4s1.3-1.5,2.2-3.3c0.8-1.7,4.4-7,7.9-11.6c3.5-4.6,8.1-10.7,10.2-13.4
  c3.7-5,6-11.1,7.1-19.5C156.42,177.74,156.22,177.64,151.32,180.34z"/>
</svg>
