<?xml version="1.0" encoding="utf-8"?>
<!-- Generator: Adobe Illustrator 24.0.2, SVG Export Plug-In . SVG Version: 6.00 Build 0)  -->
<svg version="1.1" xmlns="http://www.w3.org/2000/svg" xmlns:xlink="http://www.w3.org/1999/xlink" x="0px" y="0px"
	 viewBox="0 0 366 304" style="enable-background:new 0 0 366 304;" xml:space="preserve">
<style type="text/css">
	.st0{fill:none;stroke:#000000;stroke-width:4;stroke-miterlimit:10;}
	.st1{fill:none;stroke:#000000;stroke-width:2;stroke-miterlimit:10;}
</style>
<g id="alumno_1_">
</g>
<g id="profesor">
</g>
<g id="caballo_1_">
</g>
<g id="clase_2_">
	<path class="st0" d="M199.7,2.92c-6.1,2.3-9.5,7.2-10.6,15.1c-0.6,4.6-0.4,5.3,2,7.5c1.7,1.6,2.6,3.5,2.6,5.4
		c0,2.6,0.6,3.3,4.2,4.9c2.3,1,5.7,2.9,7.5,4.1c2.6,1.8,3.4,1.9,4,0.8c0.5-0.7,1.9-1.5,3.3-1.7c3-0.4,7-6.9,7-11.6
		c0-3.4,0.3-3.7,6.3-4.7c4.7-0.8,4.8-2.9,0.3-5c-2.3-1.1-3.9-2.9-4.9-5.3c-1.7-4.3-5-7.6-9-9.1C209.4,2.22,202.3,2.02,199.7,2.92z
		 M203.7,25.32c0,1.7-0.4,2.8-1,2.4c-0.5-0.3-1-1.7-1-3.1c0-1.3,0.5-2.4,1-2.4C203.3,22.22,203.7,23.62,203.7,25.32z M188.3,41.52
		c-3.4,4.4-7.2,13.3-9.6,22c-1.8,6.7-6.1,30.4-6.4,35.4c-0.1,1.9-0.7,2.3-3.3,2.3c-3.7,0-6.8,3.3-7.8,8.3c-1.3,6.4-1.5,6.7-4.8,6.7
		c-1.8,0-5.9-0.7-9.2-1.5c-16.8-4-36.1-2.7-49.1,3.4c-21.2,9.9-26.1,29.3-15.8,62.2l3.6,11.5l-2.2,5.2c-1.5,3.6-4.3,7.1-8.5,11
		c-8.8,8.1-8.9,8.3-8.1,23.3c0.9,16.5-0.3,23.3-5.6,32.2c-3.9,6.4-4,7-2.9,10.6c0.9,3.2,2,4.3,5.6,6c5.1,2.4,5.4,3.5,2.4,8.6
		c-2.9,4.8-2,10.1,1.9,11.6c3.1,1.2,24.7,1.8,25.7,0.7c1.3-1.2-0.3-5.1-4.7-11.8c-2.4-3.6-4.9-7.9-5.7-9.5
		c-2.2-4.8-2.5-20.7-0.7-31.3c1.9-11,4.4-16.6,9.4-21.4c3.8-3.6,20-14.7,30.6-20.9c6.4-3.8,10.7-8.5,15.6-17.2
		c3.5-6.3,4.5-7.1,3.5-2.9c-0.6,2.8-0.3,3,10.2,7.9c5.9,2.8,18,7.5,26.8,10.4l16,5.2l13.7,0.1c8.5,0.1,13.8,0.5,13.8,1.1
		c0,0.5-0.5,3.7-1,7c-0.6,3.3-1.5,13.7-2,23.2c-0.9,17.6-1.9,21.8-6,27c-1.1,1.4-2,3.9-2,5.5c0,3.6,4,7.8,7.3,7.8
		c4.2,0,5.2,2.4,2.8,6.3c-2.4,3.9-2.7,8.5-0.8,11c2.6,3.4,27.1,4.4,28.4,1.1c0.6-1.6-3.2-8.4-9.3-16.7c-9.7-13.1-8.1-25.8,7.1-57.2
		c2.9-6.1,5.7-11.6,6.3-12.3c0.7-1,4.3,0.5,15.8,6.4c8.2,4.3,16.2,9.1,17.8,10.6c2.6,2.7,2.8,3.3,2.2,7.8c-0.9,6.7-3.5,12.6-8,17.9
		c-3.2,3.8-3.7,4.9-3.1,7.8l0.6,3.4l-4.8-0.6c-8.9-1.2-11,3.1-8.2,17c1.1,4.9,2.3,9.3,2.7,9.7c2,2,26.1-18.2,28.3-23.9
		c0.6-1.5,2.2-7.5,3.5-13.1c1.3-5.7,3.5-12.9,5-16c2.8-6.1,3.4-12.6,1.5-17.5c-0.6-1.5-3.7-5.8-6.9-9.5c-3.2-3.8-8-10.4-10.7-14.7
		c-2.7-4.4-5-8.2-5.2-8.4c-0.2-0.3-1.6,0.7-3.1,2.1c-1.5,1.4-4,3.4-5.7,4.4c-3.2,2.1-3.1,1.6,1.6-4.8c3.9-5.5,5.2-11.4,4.7-21.5
		c-0.3-4.9-0.9-9.7-1.3-10.8c-0.6-1.6-0.5-1.7,0.4-0.9c0.7,0.7,2.6,4.9,4.1,9.5c1.6,4.6,2.9,8.1,3,7.7c0.3-5,13.3-44.5,15.3-46.4
		c0.8-0.8,21.5,4.5,25.2,6.5c2.2,1.1,4.5,2.1,5.2,2.1c0.7,0,2,1.2,3,2.7c4.7,7.7,8.8,9.1,17.1,5.8c3.2-1.3,4.3-2.7,7-8.1l3.3-6.6
		l-3.7-7.2c-2-3.9-4-7.5-4.5-8.1c-1.2-1.2-6.9,0.8-13.3,4.7c-3.6,2.2-5.1,2.7-6,1.8c-1.5-1.5,2.9-5.2,10.6-8.8
		c3.2-1.5,5.8-3.2,5.8-3.7c0-0.6-1.8-4.8-4-9.5c-3.9-8.3-5-12.8-3-11.5c0.6,0.3,1-0.4,1-1.7c0-4.3-2.1-9.9-5-13.1l-2.8-3.3l1.9-6.9
		c1-3.8,1.7-7,1.5-7.2c-0.6-0.7-9.9,4.3-12.3,6.6c-1.2,1.2-3.1,2.1-4.3,2.1c-1.7,0-2-0.6-2-4.8l-0.1-4.7l-4.2,4.6
		c-4.1,4.4-4.5,4.6-11.5,5.3c-16.8,1.7-34.1,9-50.5,21.4l-10.2,7.8l-4.5-5.3c-3.6-4.2-5.6-5.6-9.7-6.9c-3.3-0.9-7-3.1-10.1-5.9
		c-4.6-4.1-5-4.8-5.5-10.2c-1.3-12.4-4.9-18.2-16.1-25.5C194,37.32,191.6,37.22,188.3,41.52z M201.5,67.92c2.9,4.8,5.2,9.1,5.3,9.7
		c0,0.6,3.3,3.5,7.2,6.4c4,3,9.1,6.9,11.4,8.7c3.9,3,4.5,3.2,7.3,2.2c2.5-1,3.4-0.8,5.7,0.9c1.6,1.2,3.4,3.4,4.2,4.9
		c1.3,2.6,1.2,3-0.9,4.7c-4.1,3.3-6.8,3.3-10.8,0.1c-2.3-1.9-3.6-3.8-3.4-4.9c0.2-1.4-2.9-4.3-11.8-10.8c-6.6-4.9-12-9.4-12-10.1
		c0-0.6-2-5.3-4.5-10.4c-4.9-10-4.9-10.1-3.7-10.1C196,59.22,198.7,63.12,201.5,67.92z M323.2,93.42c2.4,9.7,5.5,18.8,8.1,24
		c2,3.9,2.1,4.7,0.8,5.2c-1.9,0.7-4.7-3.8-8-13.4c-1.4-4.1-3.1-8.8-3.8-10.4l-1.2-2.9l-4.8,8.4c-2.6,4.6-5,9.6-5.3,11.1
		c-0.8,4-2.3,3.4-2.3-0.8c0-2.4,1.2-5.6,3.4-9.3c6.3-10.3,7.4-14,7.4-23.9c-0.1-5.7,0.4-10.3,1.3-12.4c1.4-3.2,1.4-3,2.1,7.4
		C321.3,82.32,322.3,90.02,323.2,93.42z M214.7,114.52c9.9,15.6,11.8,20.2,9.8,24.4c-0.9,1.9-2.1,2.8-3.6,2.7
		c-1.2,0-5.2-0.1-8.8-0.2c-3.6-0.1-6.3-0.6-6-1.1c0.8-1.3-1.4-3.6-15.3-15.6c-12.2-10.7-15.1-14.5-15.1-19.9c0-2.7,0.4-2.8,24-3.3
		l6.5-0.2L214.7,114.52z M263.9,108.82c23.4,8.1,37,12.4,47.8,15c10.2,2.5,13,3.7,11.8,5c-1.2,1.1-26.2-4.8-40.8-9.7
		c-18.8-6.2-33.3-12.1-33.8-13.7C248.3,103.62,249.6,103.82,263.9,108.82z M196,173c-4,0-3.4,0.42-25.6-2.78
		c-16.1-2.4-21.2-4.2-23.2-8c-5.4-10.4-0.1-33.9,8.5-38.2c5.3-2.7,6.7-2.3,7.5,1.8c0.9,5.3,4.3,8.1,11.2,9.4c3.3,0.7,6.6,1.5,7.2,2
		c0.7,0.4,1.9,3.7,2.8,7.4c1.6,7.4,4.9,12.1,9.8,14.2l3.1,1.3l-0.9,7.3c-0.5,4-1.6,10.7-2.4,14.8c-0.9,4.1-1.8,9.8-2,12.6l-0.5,5.1
		L197,200h6l7.7,1.22c6-0.1,15.3-2.3,15.8-3.8c0.2-0.7-2.4-2.5-6-4.2c-9.9-4.6-10.4-5.1-8.8-10.2l1.4-4.3l4.7-13.8
		c1.6-4.1,2.9-5.9,4.9-6.7c1.5-0.6,4.1-2.6,5.7-4.3c5.8-6.2,6.8-14.5,2.8-24.1c-2.2-5.5-2.3-6-0.8-8.3l1.7-2.5l2.3,5.2
		c1.3,2.9,3,8.1,3.9,11.4c2.2,8.4,1.5,19-1.7,25.3c-1.9,3.7-3.8,5.6-8.3,8.3L215,174 M334.8,127.22c3.8,2.1,1,7.6-3.1,6.2
		c-3.1-1.1-3.7-3.4-1.4-5.6C332.1,125.92,332.3,125.92,334.8,127.22z M86.27,118.75c-4.2,8.62-8.51,16.7-10.35,19.72
		c-3.45,5.6-3.88,11.75-2.05,27.37c3.23,26.51-1.19,40.31-17.67,54.21l-2.8,2.37l1.94-7.22c2.59-9.16,2.16-10.45-1.4-4.31
		c-8.3,13.9-17.89,20.26-32.12,21.02c-7.98,0.43-8.08,0.32-5.39-1.51c8.3-5.71,21.55-23.06,21.55-28.34c0-0.65-2.26,0.75-5.07,3.34
		c-5.71,5.07-15.84,10.13-22.42,11.32l-4.31,0.75l7.11-7.44c7.87-8.3,15.09-18.43,18.11-25.65c1.19-2.59,3.34-10.67,4.96-18
		c3.23-14.98,6.47-22.96,11.75-29.42c4.1-4.96,18.43-14.12,26.83-16.92C80.67,117.99,87.03,117.35,86.27,118.75z M143.9,194.32
		c1,0.6,2.2,1.8,2.5,2.6c1.1,2.8-1.4,14.5-5.2,24.1c-1.9,5-3.5,10.3-3.5,11.7c0,7.8,8.4,21,21,33.2c8.5,8.2,18.5,21.5,21.6,28.8
		c1.3,3.3,1.3,3.6-0.3,4.3c-2.7,1.1-22.4,0.6-25.5-0.7c-2.3-0.9-2.8-1.7-2.8-4.6c0-2,0.7-4.9,1.5-6.6c0.9-1.6,1.3-3.4,1-3.8
		c-0.3-0.5-3.1-0.7-6.3-0.4c-7.1,0.7-8.8-0.9-10.2-9.2c-1.2-7.5-5-13.2-17.4-26.3l-9.6-10.1l0.2-9.7l0.3-9.7l8.5-4.7
		c9.6-5.3,16-10.6,19.7-16.1C141.6,193.82,142.2,193.42,143.9,194.32z"/>
</g>
<g id="calendario_5_">
</g>
</svg>
