<?xml version="1.0" encoding="utf-8"?>
<!-- Generator: Adobe Illustrator 24.0.2, SVG Export Plug-In . SVG Version: 6.00 Build 0)  -->
<svg version="1.1" xmlns="http://www.w3.org/2000/svg" xmlns:xlink="http://www.w3.org/1999/xlink" x="0px" y="0px"
	 viewBox="0 0 294 278" style="enable-background:new 0 0 294 278;" xml:space="preserve">
<style type="text/css">
	.st0{fill:none;stroke:#000000;stroke-width:4;stroke-miterlimit:10;}
	.st1{fill:none;stroke:#000000;stroke-width:2;stroke-miterlimit:10;}
</style>
<g id="alumno_1_">
</g>
<g id="profesor">
</g>
<g id="caballo_1_">
</g>
<g id="clase_2_">
</g>
<g id="calendario_5_">
	<g id="calendario_2_">
		<path class="st0" d="M67.4,3.34c-7.9,3.5-9.7,9.6-9.2,31.5c0.2,13.4,0.6,17.2,2,19.8c4.2,7.7,15.1,9.8,22.6,4.3
			c2.3-1.7,4.2-3.7,4.2-4.5s0.5-1.5,1-1.5c0.6,0,1,1.6,1,3.6c0,6.2-8.3,12.4-16.6,12.4c-6.4,0-14.3-5.1-17.6-11.3
			c-1.9-3.6-2.3-6.2-2.6-17.5l-0.4-13.2H34.9c-13.1,0-17.8,0.4-20.7,1.5c-4.9,2.1-8.1,5.2-10.3,10c-1.8,3.8-1.9,9.2-1.9,113.3
			c0,105.5,0.1,109.4,1.9,113c2.4,4.7,5.6,7.7,10.3,9.7c3.3,1.3,18.6,1.5,133,1.5c123.7,0,129.5-0.1,133.3-1.9
			c4.7-2.2,8.9-6.4,10.4-10.4c0.8-1.9,1.1-37.4,1.1-112.2s-0.3-110.3-1.1-112.2c-1.5-4-5.7-8.2-10.4-10.4c-3.5-1.6-6.8-1.9-27.7-1.9
			H229v-5.4c0-6.6-1.5-11.3-4.8-14.8c-7-7.5-20.2-5.6-24.6,3.6c-1.3,2.8-1.6,6.9-1.6,22.4c0,18,0.1,19.1,2.3,22.2
			c3.4,5.1,6.7,7.1,11.8,7.2c5.7,0.1,11.6-2.6,13.9-6.4c1.9-3.1,3-2.7,3,1c0,5.9-8.4,12.2-16.5,12.2c-7.5,0-16.8-6.4-19.4-13.3
			c-0.6-1.6-1.1-8.6-1.1-15.8v-12.9l-51.2-0.2l-51.3-0.3l-0.5-7c-0.7-8.6-2.8-12.9-8-15.5C76.5,1.64,71.8,1.44,67.4,3.34z M76,17.54
			c1.6,4.1,1.3,27.7-0.4,29.9c-1.2,1.6-1.6,1.7-3,0.6c-1.3-1.1-1.6-3.8-1.6-16.6c0-8.3,0.3-15.5,0.7-15.8
			C73.1,14.14,75.1,15.04,76,17.54z M216.1,17.64c1.3,3.5,0.5,29.1-0.9,30.5c-0.6,0.6-1.8,0.8-2.6,0.5c-1.4-0.5-1.6-3-1.6-16.5
			c0-8.7,0.3-16.2,0.7-16.5C213.1,14.14,215.1,15.04,216.1,17.64z M277.8,150.14l-0.3,61.2l-18.9,4.3c-10.5,2.3-19.5,4.8-20.2,5.5
			c-0.7,0.7-3.1,8-5.4,16.3c-2.3,8.2-4.9,15.8-5.8,16.7c-1.4,1.7-7.8,1.8-106.4,1.8H16v-83.5v-83.5h131h131L277.8,150.14z"/>
		<path class="st0" d="M80,127.94v18h17.5H115v-18v-18H97.5H80V127.94z"/>
		<path class="st0" d="M127,127.94v18h17.5H162v-18v-18h-17.5H127V127.94z"/>
		<path class="st0" d="M174.2,127.64l0.3,17.8l17.8,0.3l17.7,0.2v-18v-18h-18h-18L174.2,127.64z"/>
		<path class="st0" d="M218,123.34c0,7.3,0.3,15.4,0.6,18l0.7,4.6h17.3H254v-18v-18h-18h-18V123.34z"/>
		<path class="st0" d="M37.2,173.64l0.3,17.8l17.4-0.1h17.4l0.4-17.7l0.4-17.7H55H37L37.2,173.64z"/>
		<path class="st0" d="M81,172.94c0,9.3,0,17.3,0,17.7c0,1,26.3,1.6,30.8,0.8l3.2-0.6v-17.4v-17.5H98H81V172.94z"/>
		<path class="st0" d="M126.7,156.64c-0.9,0.8-0.9,6.1-0.1,10.1c0.4,2,1.4,3.2,2.9,3.6c1.2,0.3,4.7,2.9,7.6,5.6c3,2.8,6,5.6,6.7,6.2
			c1,0.9,3.2-0.7,9.8-7.3l8.4-8.4v-5.2v-5.3h-17.3C135.1,155.94,127,156.24,126.7,156.64z"/>
		<path class="st0" d="M174.7,156.64c-1.4,1.3-0.6,2.3,2.6,3.6c4,1.7,12.7,11.2,12.8,14.1c0.3,5.5-0.5,7.4-5.4,12.3l-5.1,5.3h15.2
			H210v-18v-18h-17.3C183.1,155.94,175,156.24,174.7,156.64z"/>
		<path class="st0" d="M218.2,173.64l0.3,17.8l17.8,0.3l17.7,0.2v-18v-18h-18h-18L218.2,173.64z"/>
		<path class="st0" d="M158.2,181.14l-13.3,13.1l-7.8-7.7c-6.1-6.1-8.3-7.7-10.2-7.4c-2.3,0.3-2.4,0.7-2.7,8.2l-0.3,8l9.8,9.8
			c5.4,5.4,10.3,9.7,10.9,9.6c2.3-0.6,38.4-36.2,38.4-37.9c0-1-1.4-3.4-3.1-5.4C174.7,165.54,173.3,166.14,158.2,181.14z"/>
		<path class="st0" d="M37.2,219.54l0.3,17.6l17.5-0.1h17.5l0.3-17.6l0.2-17.5H55H37L37.2,219.54z"/>
		<path class="st0" d="M81,219.34c0,17.2,0,17.4,2.3,18c2.9,0.8,17.4,0.8,25.7,0l6.5-0.6v-17.4v-17.4H98.3H81V219.34z"/>
		<path class="st0" d="M175,219.44v17.5h17.8h17.7v-17.3v-17.2l-17.7-0.3l-17.8-0.2V219.44z"/>
		<path class="st0" d="M127,223.14v13.5l15.3,0.6c8.3,0.4,16.2,0.4,17.5,0.1c2.1-0.6,2.2-1,2.2-14.1c0-15.5,0.9-14.9-9.2-5.6
			c-7.9,7.4-9.9,7.3-18.9-1.4l-6.9-6.6V223.14z"/>
	</g>
</g>
</svg>
