<?xml version="1.0" encoding="utf-8"?>
<!-- Generator: Adobe Illustrator 24.0.2, SVG Export Plug-In . SVG Version: 6.00 Build 0)  -->
<svg version="1.1" xmlns="http://www.w3.org/2000/svg" xmlns:xlink="http://www.w3.org/1999/xlink" x="0px" y="0px"
	 viewBox="0 0 364 298" style="enable-background:new 0 0 364 298;" xml:space="preserve">
<style type="text/css">
	.st0{fill:none;stroke:#000000;stroke-width:4;stroke-miterlimit:10;}
	.st1{fill:none;stroke:#000000;stroke-width:2;stroke-miterlimit:10;}
</style>
<g id="alumno_1_">
</g>
<g id="profesor">
</g>
<g id="caballo_1_">
	<path class="st0" d="M94.55,6.74c4.1,2,9.3,5.9,15.1,11.5c10,9.5,14.2,16.4,18.6,30.6c1.5,4.9,3,8.8,3.3,8.8c1.2,0-0.8-19-2.7-24.2
		c-1.8-5.3-1.8-5.7-0.3-6.2c3.9-1.1,22-2.6,39.2-3.2c22-0.7,30.2,0.5,42.5,6.4c13.5,6.5,21.6,15.3,40,43.2
		c12.4,18.8,16.2,27.6,20.6,46.9l1.9,8.6l-0.4-12.5c-0.7-20.9-4.6-31.7-19.5-54c-4.2-6.3-8-12.1-8.4-12.7c-1.3-2.1,5-0.5,13.2,3.3
		c9.4,4.4,19.9,12.9,32.4,26.4c13.1,14.1,23.5,27.4,31.2,39.7c11.6,18.6,21.8,29.2,33,34.3l3,1.3l-4.4,1
		c-9.1,1.9-18.8-1.8-28.9-10.8c-2.9-2.6-5.2-4.5-5.2-4.2s2.5,5.6,5.6,11.9c3.1,6.2,6.5,13.7,7.5,16.7c5.2,15-0.6,36.4-15,55.8
		c-18.7,25-51.9,42.9-88.8,47.8c-11.2,1.5-26.1,1.9-30.1,0.9c-4.6-1.3-12.2-20.5-17-43.2c-1.7-7.7-4.2-16.8-5.5-20.1l-2.4-6l6.7-5.1
		c11.6-8.5,18.9-17.7,24.5-30.6c1.9-4.3,3.8-8,4.2-8.1c0.5-0.2,2.7,3.9,5.1,8.9c5.4,11.8,12.6,21.4,21.1,28.2
		c5.6,4.6,15.7,10.6,17.6,10.6c0.3,0-2.8-3.8-7-8.5c-8.9-10-15.3-19.6-20.5-30.8c-3.9-8.2-5.1-12.2-9.1-29.7
		c-1.2-5.2-3.2-12.1-4.5-15.2c-2.5-6-7.5-14.8-8.4-14.8c-0.4,0,0,3.9,0.8,8.7c2.7,17.8-0.3,39.3-7.4,53.6
		c-6.9,13.6-19.5,27-30.7,32.5c-3.5,1.7-10.1,4.1-14.8,5.2c-17.6,4.4-18.3,4.7-25.2,11c-8.2,7.6-10.1,7.7-11.7,0.9
		c-0.7-2.7-2.3-6.3-3.7-7.9c-1.9-2.3-2.3-3.7-1.8-5.8c0.5-2.5,0.1-3-3.5-5.1l-4-2.2l-1.7,3.5c-1.3,2.9-2.2,3.6-4.5,3.6
		c-6.6,0-13.8,6.4-15.3,13.7c-1.7,8.1,5,18.4,13.4,20.5l4.4,1.1l-3,2.6c-1.7,1.4-4.9,4-7,5.8c-2.9,2.3-4.6,4.8-6.2,9.2
		c-3.7,10.2-10.6,15.1-21.2,15.1c-6.1,0-11.6-1.7-16.7-5.1c-3.2-2.1-5.5-2.9-9-2.9c-5.3-0.1-11.4-2-14.2-4.5
		c-1.7-1.5-3.4-5.4-7.4-16.6c-0.9-2.6-3.4-7.6-5.6-11.2c-3.4-5.7-4-7.4-4-12.4c0-6.5,1-8.7,8.7-19.7c5.4-7.6,12.7-21.2,13.8-25.9
		c0.6-2.3,1.3-2.7,4.1-2.7c4.3,0,17.7,4.9,26.1,9.5c3.6,2,12.3,7.4,19.3,12c13.8,9.1,17.9,10.4,20,6.4c0.6-1.1,1-2.6,0.8-3.4
		c-0.5-2.6-23.3-18.8-34.4-24.7c-16.4-8.5-29-11.7-34.5-8.7c-2,1-2,1-0.3-1.5c0.9-1.5,2.7-2.9,4-3.2c1.9-0.5,3.1-2.6,6.3-10.7
		c4.8-12.5,6.2-17.3,10.5-35.7c1.9-8,3.7-15.3,4.1-16.2c0.7-1.6,0.4-1.6-3.7,0.2c-2.4,1-6.4,2.2-8.8,2.6l-4.5,0.7l5.3-5.6
		c5.5-5.9,9-12.6,11.1-21.2c0.7-2.8,2.6-7.5,4.2-10.6l3-5.6l-4-5.8c-5.7-8.1-11.1-26.3-9.6-32.2c0.5-2.3,0.9-2.5,4.7-2
		c5.9,0.8,19.4,7.8,28.8,14.9c6.6,4.9,8.5,5.9,10.6,5.4c2.1-0.6,2.5-1.2,2.1-2.9c-0.8-3.9-6.7-33-6.7-33.4
		C83.75,2.14,88.25,3.74,94.55,6.74z M137.75,37.84c5.7,8.7,8.6,18,9.6,31.2c0.6,7.4,0.5,8.8-0.7,8.3c-0.8-0.3-9.9-3.4-20.4-6.8
		c-23.7-7.7-25.8-8.8-28.9-15.3l-2.4-5.1l-0.7,3.8c-1.1,5.6,0.2,10,3.8,13.4c4.3,4.1,5.5,4.6,22,10.3c7.8,2.6,16.3,5.7,18.9,6.9
		l4.7,2l-1,3.6c-1.7,6.1,0.3,9.5,9.6,16.5l5,3.7l3.4,13.9c5.2,21.2,6,25.9,6.7,39.4c0.7,13.1-0.4,25.6-3,32.9
		c-1.4,4.2-1.4,4.2,0.7,2.8c3-2,8.4-10.1,9.7-14.5c0.6-2,1.6-8.5,2.3-14.4c1.9-18.5-1.9-41-10.8-63.9c-2.8-7-3.3-9.4-2.5-10.9
		s0.5-3.4-1-7.7c-1.2-3.2-3-10.6-4-16.5c-3.2-17.7-8.4-28.2-16.7-33.8C136.15,33.74,135.05,33.84,137.75,37.84z M174.75,38.94
		c0,0.3,2.4,1.3,5.3,2.2c9.1,3,20.6,8.4,26.5,12.4c6.8,4.7,17.1,15.1,23.8,24.2c10.3,13.8,9.7,13.3,6.9,5.6
		c-5.9-16.2-15.9-31.4-24.7-37.3c-2.5-1.7-7.7-3.9-11.4-4.8C194.45,39.54,174.75,37.84,174.75,38.94z M76.65,65.64
		c-0.5,0-0.9,0.6-0.9,1.2c0,2.5-9.9,22.9-13.1,27c-1.8,2.4-5.3,6.4-7.8,9c-5.5,5.8-4.3,6.1,3.5,0.9c11.3-7.6,14.6-13,17.3-28
		C76.65,70.14,77.15,65.64,76.65,65.64z M287.75,105.54l-3.9-4.4l2.5,7.5c4.5,13.2,6.3,23.1,7.9,41.8c1.6,20.1,3.6,31.1,6.8,38.7
		c4.6,11,4.7,10.6,4.7-11.6c0-31.5-1.9-43.1-9.6-58.5C293.65,114.14,289.85,108.04,287.75,105.54z M108.55,104.64
		c-12.9,0.1-19.5,3.2-21.1,10.1c-1,3.9,0.1,4.1,4.2,0.9c2-1.6,5.9-3.5,8.6-4.3c2.8-0.8,7.6-2.2,10.7-3.1c3.2-0.9,6-2.1,6.3-2.6
		C117.65,105.04,114.25,104.64,108.55,104.64z M144.65,106.84c-0.4-0.2-1,1-1.4,2.5c-1.8,7.2-10.6,27.7-20,46.5l-10.5,20.8l4.2,3
		c2.2,1.7,4.5,3,4.9,3c3.7,0,29.2-55.7,30.6-67c0.4-3.2,0-3.7-3.4-6C146.95,108.24,144.95,107.04,144.65,106.84z M92.35,121.54
		l-3.7,3.8l6.2,0.7c5.3,0.6,6.6,0.4,8.8-1.2c3.1-2.2,5.5-6.7,4.7-8.8C107.15,112.94,97.65,116.14,92.35,121.54z M107.85,178.64
		c-1.2,0-2.3,1.7-5.6,8.7c-2.7,5.9-2.7,6.4-1.2,8.1c0.9,1,4.4,3.1,7.8,4.8l6.2,2.9l1.6-2.4c0.9-1.4,2.8-4.6,4.3-7.1l2.7-4.7
		l-7.5-5.2C112.05,180.94,108.25,178.64,107.85,178.64z M42.05,211.24c-2.8,1.4-10.3,9.2-10.3,10.7c0,0.3,2.3-0.3,5-1.4
		c6.5-2.5,8.5-2.4,10.4,0.3c2.3,3.2,2,8-0.8,13.8c-1.3,2.8-2,5-1.6,5c1.6,0,8.9-9.2,10.1-12.7c1.8-5.4,0.6-12.3-2.6-15
		C49.15,209.24,46.45,209.04,42.05,211.24z M151.95,98.34c0.2,1,1.4,1.9,2.6,2.1c1.9,0.3,2.3-0.1,2-1.5c-0.2-1-1.4-1.9-2.6-2.1
		C152.05,96.54,151.65,96.94,151.95,98.34z M92.25,215.54c-10.4,4.3-6.4,19.1,5.1,19.1c3.1,0,8-4.7,9-8.4
		C108.15,218.84,99.85,212.44,92.25,215.54z M108.75,235.54c-2.5,2.5-5.4,5.1-6.5,5.7c-1.8,1-1.6,1.5,3.9,7.7
		c18.1,20.7,48.3,37.5,79.6,44.3c12.1,2.7,44.9,2.7,57,0c17.6-3.8,33-10.4,46.6-19.7c6.8-4.7,12.6-9.9,11-9.9
		c-0.4,0-4.8,1.8-9.9,3.9c-28.7,12.2-54.6,16.5-81.7,13.5c-34.3-3.8-60-15.9-85-40l-10.5-10.2L108.75,235.54z"/>
</g>
<g id="clase_2_">
</g>
<g id="calendario_5_">
</g>
</svg>
