<svg xmlns="http://www.w3.org/2000/svg" viewBox="0 0 376 339" fill="none" stroke="currentColor" stroke-linecap="round" stroke-linejoin="round">
<path stroke-width="1" d="M208,59c2,1,3,2,7,5c4,4,6.1,3.5,3,3c-15.82-3.42-17-8-42.68-7.48c-9.9,1.7-10.51,1.85-7.5-0.1
  C170,58,169,59,178,56C188,54,200.07,55.8,208,59z M314,290l3.38-21.7c1.3-8.8,2.2-16.6,2-17.4c-0.2-1.3-5-1.5-36.1-1.5
  c-19.7,0-36.2,0.3-36.7,0.6c-0.9,0.5-3,13.5-8.8,54.9c-1.1,8-2.5,17.6-3.1,21.4c-0.9,6.1-0.9,7.1,0.7,8.8c1.7,1.9,2.9,1.9,33.6,1.2
  c17.6-0.4,34.73,0.02,36.02-1.3c0.89-0.91,1-5,1-5 M242,74c-2.4-0.3-18.02,3.8-22.92,5.9c-8.4,3.5-20.8,5.1-35.9,4.6
  c-5.5-0.1-11.1-0.1-12.6,0.1l-2.5,0.5l1.3,11.6c1.8,15.8,3.7,23.3,7.9,31.2c5.1,9.7,10.9,15.4,17.1,16.9c4.6,1.1,5.7,1,12.7-1.3
  c8.3-2.8,17-7,22.6-10.8c6.3-4.3,6.5-4.3,3.3-0.2c-8.2,10.4-21.3,17.6-33,18.2c-5.4,0.3-7.3,0.8-7.3,1.8c0,0.8,1.4,5.7,3.1,11
  s2.9,9.7,2.7,9.7c-0.2,0.1-4,2.1-8.5,4.4c-4.5,2.3-8.4,3.9-8.7,3.4c-0.3-0.4-0.1-7.2,0.4-15.1c0.6-7.9,0.8-14.5,0.7-14.7
  c-0.2-0.2-4.7,1.9-9.9,4.7c-5.2,2.8-15.6,7.3-22.9,10.1c-7.4,2.8-14.5,6.1-15.8,7.2c-1.2,1.2-5.1,8.1-8.6,15.3
  c-5.3,10.9-9.5,18.5-21.3,38.4c-1,1.6-6.2-5.8-15-21.5c-2.6-4.7-4.9-8.5-5.2-8.5c-0.3,0-1.6,2.5-2.9,5.5
  c-4.9,11.3-17.9,20-29.7,19.9h-6.1l4.3,9.8c6.5,14.5,13,27.1,18.7,36.2c2.7,4.5,6.8,11,9,14.6c4.4,7.4,6.2,9,13.2,12.7
  c6.7,3.5,14,3.6,21.5,0.1c4.2-1.9,8.2-5.3,16.8-14.3l11.4-11.8l-0.7-5.6c-1-7.3-0.7-33.6,0.4-38.1l0.8-3.5l0.7,5
  c0.4,2.7,1.7,9.9,2.7,16c2.1,11.9,5.1,38.1,6.9,59c1.6,20.1,2.1,25.5,2.4,25.5c0.2,0,6.1,0.9,13.2,1.9c7.1,1.1,15.6,2.2,18.9,2.5
  c10.1,0.9,38.6,0.9,39.4,0c0.5-0.5,3.4-19.4,6.6-41.9c3.1-22.6,6.1-42.7,6.6-44.7c0.5-2.1,1.9-4.2,2.9-4.8
  c1.3-0.7,11.6-1.1,27.4-1.1c20.5,0,25.6-0.3,26.6-1.4c2.2-2.6-2.3-3.7-13.3-3.1c-14.8,0.8-18,0.7-19.1-0.4
  c-0.6-0.6,0.2-1.5,2.5-2.4c1.9-0.8,4-2.6,4.7-4c1.2-2.6,1.2-2.6,13.7-2.6h12.4l1.6,3c0.9,1.7,2.4,3,3.4,3c2.3,0,3.8,1.8,4.3,5
  c0.3,2.4,0.5,2.5,9.8,2.8c14.6,0.4,15.7,2.4,12.6,21.2c-2.6,15.2-2.6,15.2-0.2,14.5c1.2-0.3,4.4-0.8,7.1-1.1l5-0.6l-4,2.7
  c-2.2,1.5-4.4,3.1-4.9,3.6c-0.5,0.4,0.5,2.4,2.4,4.5c4.6,5.3,6,9.3,5.9,17.1c-0.2,11.1-1.2,12.8-2.7,4.4
  c-1.4-8.2-3.8-13.4-7.9-17.2c-4.3-4-11.38-1.6-13.98,1.2c-1.5,1.6-2.02,0.9-9.82,3.3c-13.2,4.2-14.5,4.9-14.5,7.9
  c0,1.9,0.5,2,11.7,1.5c13.3-0.6,13,0.4-0.8,2.7c-13.6,2.2-13.9,2.3-13.9,4.3c0,2.1,2.8,4.9,8.2,8.1c2,1.2,4.6,3.7,5.7,5.7
  c2.3,3.9,2.12,6.5,7.42,6.5c5.1,0,31.28-3.8,38.68-6.1c8.7-2.6,16.7-7.6,20.7-12.8c3.9-5.2,6.7-14,5.8-18.3
  c-0.7-2.9-8.9-22.3-30.5-71.9c-5.6-12.9-11.8-27.2-13.7-31.6c-4.3-10.2-9.1-18.2-12.3-20.6c-1.4-1-10.4-4.6-20-8.2
  c-22.1-8-29-11.2-36.5-16.8l-6-4.5l-1.7,8.7c-2.1,10.3-9.5,32-11.3,32.6c-0.7,0.3-4.9-1.3-9.4-3.5c-4.4-2.3-8.8-4.1-9.6-4.1
  c-1.5,0-1.5-0.3,0-2.8c0.9-1.5,4.6-6.1,8.2-10.2c3.5-4.1,9-10.8,12.1-14.8c5.6-7.3,5.6-7.4,5.4-13.8c-0.4-9.5,1.2-14.2,5.2-15.9
  c3.9-1.7,11.7-9.8,14.5-15.2c1.1-2.2,2.3-6.3,2.7-9c0.5-4.4,0.3-5.3-1.6-7.1c-2.4-2.2-11.2-4.8-12.9-3.7c-0.6,0.3-3,6.7-5.3,14.1
  c-3.7,11.8-4.4,13.3-5.5,11.8c-0.9-1.3-1.3-5.8-1.3-15.1L242,74c11.36,0.64,21.2,2.27,28.48,5.5c3,1.3,5.8,2.2,6.1,1.8
  c0.3-0.3,0.8-5.9,1-12.5c0.6-20.9-4.7-36.6-16.5-48.5c-12.2-12.3-34.1-19.2-52.1-16.4c-13.3,2-26.6,8.3-33.5,15.6
  c-6.8,7.4-12.5,19.7-15.3,33c-0.9,4.3-2.1,8.5-2.8,9.3c-0.7,0.8-4.9,3.8-9.4,6.8c-9,5.7-10.1,7.9-5.8,10.7c3.7,2.4,12.7,2,43.5-2
  C198.07,75.69,229.19,74.53,242,74z M182.68,187.4c-1.4,1.7,0.1,10.1,7.5,41.5c2.1,8.5,3.8,18.4,3.9,21.9l0.1,6.5l-4,0.8
  c-7,1.4-7.5,2.9-7.5,20.3c0,11.2,0.3,15.5,1.3,16.3c0.7,0.6,4.1,1.2,7.6,1.3c8,0.3,9.1-0.9,9.1-9.8c0-5.4,0.3-6.3,1.8-6.3
  c2.4,0,6-3.4,6.8-6.4c0.3-1.2,0.4-4,0.2-6.2c-0.3-3.5-0.8-4.2-5.1-6.5l-4.7-2.5l6.6-8c8.4-10,10.9-13.7,17.3-25.1
  c5-9.2,14.3-30.2,15.6-35.6c0.7-2.6,0.5-2.8-2.5-3.1c-0.6-0.1-3.2,5.3-5.9,11.9c-5.5,13.7-13,28.9-17.4,35.5c-4,6-12.9,17-13.7,17
  c-0.3,0-0.7-1.4-0.8-3c-0.3-3.4-1.1-7.5-7.6-35c-2.5-10.7-4.8-21.2-5.1-23.3C185.58,185.6,184.68,185,182.68,187.4z M188.68,275.2
  c0,6.9,1.1,8.4,5.2,7.1c1.6-0.5,1.9-1.4,1.6-6.7c-0.3-6.2-0.3-6.2-3.5-6.5l-3.3-0.3V275.2z M4.28,151.4c-3.8,3.8-1.5,6.2,12.3,12.7
  c6.9,3.2,12.7,6.1,12.9,6.3c0.2,0.2-2.1,4-5.2,8.3c-8,11.4-7.6,14.9,2.9,22c3.5,2.4,8.6,5.4,11.4,6.7c2.7,1.4,5.5,3.4,6.1,4.5
  c0.8,1.6,2.1,2,6,2c5.6,0,8.7-1.1,14.8-5.4c5-3.5,10.2-11.1,10.2-15c0-6.8-12.1-26.4-18.3-29.7c-2.6-1.4-15.6-5.3-31.2-9.3
  C7.78,149.8,6.18,149.5,4.28,151.4z"/>
</svg>
